<svg xmlns="http://www.w3.org/2000/svg" xmlns:xlink="http://www.w3.org/1999/xlink" width="71px" height="40px" viewBox="0 0 71 40" version="1.1">
<defs fill="#ffffff">
<filter id="alpha" filterUnits="objectBoundingBox" x="0%" y="0%" width="100%" height="100%" fill="#ffffff">
  <feColorMatrix type="matrix" in="SourceGraphic" values="0 0 0 0 1 0 0 0 0 1 0 0 0 0 1 0 0 0 1 0" fill="#ffffff"/>
</filter>
<mask id="mask0" fill="#ffffff">
  <g filter="url(#alpha)">
<rect x="0" y="0" width="71" height="40" style="fill:#ffffff;fill-opacity:0.988235;stroke:none;"/>
  </g>
</mask>
<clipPath id="clip1" fill="#ffffff">
  <rect x="0" y="0" width="71" height="40" fill="#ffffff"/>
</clipPath>
<g id="surface5" clip-path="url(#clip1)">
<path style=" stroke:none;fill-rule:evenodd;fill:#ffffff;fill-opacity:1;" d="M 15.566406 3.152344 C 15.644531 3.152344 15.707031 3.1875 15.75 3.253906 C 16.070312 3.742188 16.320312 4.265625 16.503906 4.816406 C 16.617188 4.644531 16.679688 4.457031 16.683594 4.246094 C 17.21875 3.167969 17.652344 3.203125 17.984375 4.347656 C 18.0625 4.6875 18.089844 5.027344 18.0625 5.363281 C 18.332031 5.542969 18.589844 5.734375 18.839844 5.9375 C 19.324219 6.039062 19.730469 6.273438 20.0625 6.640625 C 20.90625 7.769531 21.640625 8.96875 22.273438 10.234375 C 20.179688 13.136719 18.0625 16.027344 15.929688 18.90625 C 18.492188 19.402344 21.058594 19.878906 23.625 20.339844 C 23.4375 20.816406 23.21875 21.285156 22.972656 21.746094 C 21.679688 24.253906 20.371094 26.753906 19.050781 29.246094 C 18.234375 28.324219 17.4375 27.386719 16.660156 26.433594 C 15.535156 26.140625 14.425781 25.804688 13.332031 25.417969 C 11.652344 24.800781 10.195312 23.84375 8.964844 22.550781 C 8.203125 22.140625 7.433594 21.75 6.652344 21.378906 C 6.121094 21.402344 5.777344 21.664062 5.613281 22.160156 C 5.480469 23.164062 5.402344 24.171875 5.378906 25.183594 C 5.457031 25.996094 5.742188 26.726562 6.238281 27.371094 C 6.402344 27.5 6.566406 27.628906 6.730469 27.761719 C 7.371094 28.042969 7.933594 28.433594 8.421875 28.933594 C 8.707031 29.832031 8.386719 30.390625 7.457031 30.597656 C 7.363281 30.59375 7.277344 30.570312 7.199219 30.519531 C 6.578125 29.828125 5.851562 29.289062 5.015625 28.90625 C 4.148438 27.851562 3.734375 26.644531 3.769531 25.285156 C 3.675781 23.46875 3.554688 21.65625 3.40625 19.84375 C 3.375 19.148438 3.617188 18.574219 4.132812 18.125 C 4.53125 17.925781 4.949219 17.894531 5.378906 18.019531 C 6.253906 18.335938 7.085938 18.734375 7.875 19.21875 C 8.371094 19.417969 8.875 19.597656 9.382812 19.765625 C 9.527344 19.316406 9.710938 18.882812 9.925781 18.464844 C 10.898438 17.125 12.136719 16.109375 13.644531 15.417969 C 14.675781 14.761719 15.5 13.902344 16.113281 12.839844 C 16.265625 12.542969 16.335938 12.230469 16.320312 11.902344 C 16.101562 11.335938 15.726562 11.203125 15.203125 11.511719 C 14.945312 11.71875 14.703125 11.941406 14.476562 12.1875 C 14.128906 12.339844 13.765625 12.417969 13.382812 12.421875 C 12.417969 12.285156 11.480469 12.398438 10.578125 12.761719 C 10.363281 12.980469 10.136719 13.1875 9.902344 13.386719 C 9.519531 13.511719 9.171875 13.441406 8.863281 13.175781 C 7.90625 12.328125 7.742188 11.347656 8.367188 10.234375 C 8.464844 10.140625 8.558594 10.042969 8.652344 9.949219 C 9.285156 9.691406 9.90625 9.414062 10.523438 9.113281 C 12.023438 8.117188 13.382812 6.945312 14.605469 5.597656 C 14.757812 5.417969 14.894531 5.226562 15.019531 5.027344 C 15.207031 4.402344 15.390625 3.777344 15.566406 3.152344 Z M 15.566406 3.152344 "/>
</g>
<mask id="mask1" fill="#ffffff">
  <g filter="url(#alpha)">
<rect x="0" y="0" width="71" height="40" style="fill:#ffffff;fill-opacity:0.945098;stroke:none;"/>
  </g>
</mask>
<clipPath id="clip2" fill="#ffffff">
  <rect x="0" y="0" width="71" height="40" fill="#ffffff"/>
</clipPath>
<g id="surface8" clip-path="url(#clip2)">
<path style=" stroke:none;fill-rule:evenodd;fill:#ffffff;fill-opacity:1;" d="M 27.625 3.308594 C 26.484375 7.050781 25.289062 10.851562 24.039062 14.714844 C 24.347656 14.804688 24.65625 14.875 24.976562 14.921875 C 25.035156 18.65625 25.042969 22.386719 25 26.121094 C 21.378906 30.460938 17.757812 34.800781 14.136719 39.140625 C 17.402344 32.800781 20.699219 26.472656 24.039062 20.15625 C 21.421875 19.71875 18.804688 19.273438 16.191406 18.828125 C 20.003906 13.652344 23.8125 8.480469 27.625 3.308594 Z M 27.625 3.308594 "/>
</g>
<mask id="mask2" fill="#ffffff">
  <g filter="url(#alpha)">
<rect x="0" y="0" width="71" height="40" style="fill:#ffffff;fill-opacity:0.968627;stroke:none;"/>
  </g>
</mask>
<clipPath id="clip3" fill="#ffffff">
  <rect x="0" y="0" width="71" height="40" fill="#ffffff"/>
</clipPath>
<g id="surface11" clip-path="url(#clip3)">
<path style=" stroke:none;fill-rule:evenodd;fill:#ffffff;fill-opacity:1;" d="M 25.183594 14.765625 C 26.441406 14.75 27.699219 14.765625 28.949219 14.816406 C 28.957031 17.160156 28.96875 19.515625 28.976562 21.875 C 28.976562 24.109375 28.941406 26.332031 28.871094 28.542969 C 27.628906 28.585938 26.390625 28.574219 25.15625 28.515625 C 25.113281 23.929688 25.121094 19.34375 25.183594 14.765625 Z M 25.183594 14.765625 "/>
</g>
<mask id="mask3" fill="#ffffff">
  <g filter="url(#alpha)">
<rect x="0" y="0" width="71" height="40" style="fill:#ffffff;fill-opacity:0.968627;stroke:none;"/>
  </g>
</mask>
<clipPath id="clip4" fill="#ffffff">
  <rect x="0" y="0" width="71" height="40" fill="#ffffff"/>
</clipPath>
<g id="surface14" clip-path="url(#clip4)">
<path style=" stroke:none;fill-rule:evenodd;fill:#ffffff;fill-opacity:1;" d="M 30.953125 14.765625 C 34.398438 14.757812 37.847656 14.765625 41.296875 14.792969 C 41.363281 15.675781 41.363281 16.5625 41.296875 17.449219 C 39.113281 17.472656 36.929688 17.484375 34.746094 17.472656 C 34.761719 18.363281 34.746094 19.246094 34.695312 20.128906 C 34.71875 20.179688 34.753906 20.222656 34.796875 20.261719 C 36.757812 20.304688 38.714844 20.292969 40.671875 20.234375 C 40.722656 20.257812 40.765625 20.292969 40.800781 20.339844 C 40.84375 21.21875 40.835938 22.097656 40.777344 22.96875 C 38.796875 23.003906 36.820312 23.003906 34.851562 22.96875 C 34.789062 23.023438 34.738281 23.082031 34.695312 23.152344 C 34.761719 24.011719 34.761719 24.871094 34.695312 25.730469 C 34.730469 25.765625 34.761719 25.796875 34.796875 25.832031 C 36.964844 25.851562 39.128906 25.867188 41.296875 25.886719 C 41.363281 26.757812 41.363281 27.636719 41.296875 28.515625 C 37.851562 28.578125 34.402344 28.585938 30.953125 28.542969 C 30.882812 23.949219 30.882812 19.359375 30.953125 14.765625 Z M 30.953125 14.765625 "/>
</g>
<mask id="mask4" fill="#ffffff">
  <g filter="url(#alpha)">
<rect x="0" y="0" width="71" height="40" style="fill:#ffffff;fill-opacity:0.976471;stroke:none;"/>
  </g>
</mask>
<clipPath id="clip5" fill="#ffffff">
  <rect x="0" y="0" width="71" height="40" fill="#ffffff"/>
</clipPath>
<g id="surface17" clip-path="url(#clip5)">
<path style=" stroke:none;fill-rule:evenodd;fill:#ffffff;fill-opacity:1;" d="M 43.476562 14.765625 C 46.925781 14.757812 50.375 14.765625 53.820312 14.792969 C 53.890625 15.675781 53.890625 16.5625 53.820312 17.449219 C 51.640625 17.472656 49.457031 17.484375 47.273438 17.472656 C 47.253906 18.40625 47.273438 19.335938 47.324219 20.261719 C 49.292969 20.304688 51.261719 20.296875 53.222656 20.234375 C 53.257812 20.269531 53.292969 20.304688 53.328125 20.339844 C 53.371094 21.21875 53.363281 22.097656 53.300781 22.96875 C 51.316406 22.980469 49.324219 22.996094 47.324219 23.019531 C 47.265625 23.945312 47.253906 24.875 47.296875 25.808594 C 49.488281 25.859375 51.679688 25.875 53.875 25.859375 C 53.890625 26.757812 53.875 27.652344 53.820312 28.542969 C 50.375 28.566406 46.925781 28.578125 43.476562 28.566406 C 43.476562 23.96875 43.476562 19.367188 43.476562 14.765625 Z M 43.476562 14.765625 "/>
</g>
<mask id="mask5" fill="#ffffff">
  <g filter="url(#alpha)">
<rect x="0" y="0" width="71" height="40" style="fill:#ffffff;fill-opacity:0.968627;stroke:none;"/>
  </g>
</mask>
<clipPath id="clip6" fill="#ffffff">
  <rect x="0" y="0" width="71" height="40" fill="#ffffff"/>
</clipPath>
<g id="surface20" clip-path="url(#clip6)">
<path style=" stroke:none;fill-rule:evenodd;fill:#ffffff;fill-opacity:1;" d="M 56.003906 14.765625 C 59.453125 14.757812 62.902344 14.765625 66.347656 14.792969 C 66.417969 15.675781 66.417969 16.5625 66.347656 17.449219 C 64.164062 17.472656 61.980469 17.484375 59.800781 17.472656 C 59.78125 18.394531 59.800781 19.316406 59.851562 20.234375 C 61.800781 20.304688 63.75 20.304688 65.699219 20.234375 C 65.742188 20.246094 65.789062 20.265625 65.828125 20.285156 C 65.898438 21.183594 65.898438 22.078125 65.828125 22.96875 C 63.835938 22.984375 61.84375 23.003906 59.851562 23.019531 C 59.789062 23.945312 59.78125 24.875 59.824219 25.808594 C 61.996094 25.851562 64.171875 25.875 66.347656 25.886719 C 66.382812 25.9375 66.417969 25.988281 66.453125 26.042969 C 66.382812 26.839844 66.382812 27.640625 66.453125 28.4375 C 66.417969 28.472656 66.382812 28.507812 66.347656 28.542969 C 62.902344 28.578125 59.453125 28.578125 56.003906 28.542969 C 55.9375 23.949219 55.9375 19.359375 56.003906 14.765625 Z M 56.003906 14.765625 "/>
</g>
<mask id="mask6" fill="#ffffff">
  <g filter="url(#alpha)">
<rect x="0" y="0" width="71" height="40" style="fill:#ffffff;fill-opacity:0.792157;stroke:none;"/>
  </g>
</mask>
<clipPath id="clip7" fill="#ffffff">
  <rect x="0" y="0" width="71" height="40" fill="#ffffff"/>
</clipPath>
<g id="surface23" clip-path="url(#clip7)">
<path style=" stroke:none;fill-rule:evenodd;fill:#ffffff;fill-opacity:1;" d="M 25.546875 29.191406 C 26.152344 29.191406 26.757812 29.191406 27.367188 29.191406 C 27.375 29.382812 27.367188 29.574219 27.339844 29.765625 C 26.980469 30.253906 26.589844 30.714844 26.171875 31.144531 C 26.585938 31.171875 27 31.179688 27.417969 31.171875 C 27.417969 31.363281 27.417969 31.554688 27.417969 31.746094 C 26.757812 31.746094 26.101562 31.746094 25.441406 31.746094 C 25.433594 31.554688 25.441406 31.363281 25.46875 31.171875 C 25.859375 30.726562 26.230469 30.265625 26.585938 29.792969 C 26.238281 29.765625 25.894531 29.757812 25.546875 29.765625 C 25.546875 29.574219 25.546875 29.382812 25.546875 29.191406 Z M 25.546875 29.191406 "/>
</g>
<mask id="mask7" fill="#ffffff">
  <g filter="url(#alpha)">
<rect x="0" y="0" width="71" height="40" style="fill:#ffffff;fill-opacity:0.807843;stroke:none;"/>
  </g>
</mask>
<clipPath id="clip8" fill="#ffffff">
  <rect x="0" y="0" width="71" height="40" fill="#ffffff"/>
</clipPath>
<g id="surface26" clip-path="url(#clip8)">
<path style=" stroke:none;fill-rule:evenodd;fill:#ffffff;fill-opacity:1;" d="M 28.300781 29.191406 C 28.511719 29.175781 28.71875 29.191406 28.925781 29.246094 C 29.136719 29.789062 29.347656 30.335938 29.546875 30.886719 C 29.648438 31.167969 29.714844 31.453125 29.757812 31.746094 C 29.566406 31.746094 29.375 31.746094 29.183594 31.746094 C 29.140625 31.546875 29.089844 31.355469 29.027344 31.171875 C 28.75 31.164062 28.472656 31.171875 28.199219 31.199219 C 28.128906 31.375 28.078125 31.558594 28.042969 31.746094 C 27.851562 31.746094 27.660156 31.746094 27.46875 31.746094 C 27.675781 30.863281 27.953125 30.015625 28.300781 29.191406 Z M 28.5625 29.871094 C 28.679688 30.109375 28.78125 30.359375 28.871094 30.625 C 28.699219 30.660156 28.527344 30.660156 28.351562 30.625 C 28.449219 30.382812 28.519531 30.128906 28.5625 29.871094 Z M 28.5625 29.871094 "/>
</g>
<mask id="mask8" fill="#ffffff">
  <g filter="url(#alpha)">
<rect x="0" y="0" width="71" height="40" style="fill:#ffffff;fill-opacity:0.796078;stroke:none;"/>
  </g>
</mask>
<clipPath id="clip9" fill="#ffffff">
  <rect x="0" y="0" width="71" height="40" fill="#ffffff"/>
</clipPath>
<g id="surface29" clip-path="url(#clip9)">
<path style=" stroke:none;fill-rule:evenodd;fill:#ffffff;fill-opacity:1;" d="M 30.589844 29.191406 C 31.132812 29.089844 31.609375 29.214844 32.015625 29.558594 C 32.097656 29.742188 32.140625 29.929688 32.148438 30.128906 C 31.957031 30.128906 31.765625 30.128906 31.574219 30.128906 C 31.574219 29.996094 31.519531 29.882812 31.417969 29.792969 C 30.800781 29.59375 30.488281 29.820312 30.484375 30.46875 C 30.445312 30.925781 30.652344 31.195312 31.109375 31.277344 C 31.242188 31.199219 31.378906 31.140625 31.523438 31.09375 C 31.605469 31.035156 31.636719 30.957031 31.628906 30.859375 C 31.453125 30.867188 31.28125 30.859375 31.109375 30.832031 C 31.039062 30.675781 31.039062 30.519531 31.109375 30.363281 C 31.472656 30.339844 31.835938 30.328125 32.199219 30.339844 C 32.199219 30.808594 32.199219 31.277344 32.199219 31.746094 C 32.0625 31.746094 31.921875 31.746094 31.785156 31.746094 C 31.796875 31.683594 31.777344 31.632812 31.730469 31.589844 C 31.089844 31.882812 30.527344 31.777344 30.042969 31.277344 C 29.875 30.96875 29.804688 30.636719 29.835938 30.285156 C 29.925781 30.238281 29.933594 30.175781 29.859375 30.105469 C 29.941406 29.917969 30.027344 29.738281 30.121094 29.558594 C 30.292969 29.445312 30.449219 29.324219 30.589844 29.191406 Z M 30.589844 29.191406 "/>
</g>
<mask id="mask9" fill="#ffffff">
  <g filter="url(#alpha)">
<rect x="0" y="0" width="71" height="40" style="fill:#ffffff;fill-opacity:0.792157;stroke:none;"/>
  </g>
</mask>
<clipPath id="clip10" fill="#ffffff">
  <rect x="0" y="0" width="71" height="40" fill="#ffffff"/>
</clipPath>
<g id="surface32" clip-path="url(#clip10)">
<path style=" stroke:none;fill-rule:evenodd;fill:#ffffff;fill-opacity:1;" d="M 33.1875 29.191406 C 33.394531 29.191406 33.601562 29.191406 33.8125 29.191406 C 34.0625 29.960938 34.332031 30.722656 34.617188 31.484375 C 34.632812 31.378906 34.652344 31.277344 34.667969 31.171875 C 35.066406 30.71875 35.457031 30.257812 35.835938 29.792969 C 35.472656 29.765625 35.109375 29.757812 34.746094 29.765625 C 34.746094 29.574219 34.746094 29.382812 34.746094 29.191406 C 35.371094 29.191406 35.992188 29.191406 36.617188 29.191406 C 36.625 29.382812 36.617188 29.574219 36.589844 29.765625 C 36.21875 30.242188 35.828125 30.703125 35.421875 31.144531 C 35.835938 31.171875 36.253906 31.179688 36.667969 31.171875 C 36.667969 31.363281 36.667969 31.554688 36.667969 31.746094 C 35.792969 31.75 34.925781 31.734375 34.070312 31.691406 C 34.042969 31.523438 33.972656 31.375 33.863281 31.25 C 33.878906 31.234375 33.898438 31.214844 33.914062 31.199219 C 33.621094 31.171875 33.324219 31.164062 33.03125 31.171875 C 32.996094 31.363281 32.960938 31.554688 32.925781 31.746094 C 32.738281 31.746094 32.546875 31.746094 32.355469 31.746094 C 32.558594 30.886719 32.835938 30.039062 33.1875 29.191406 Z M 33.445312 29.816406 C 33.566406 30.082031 33.652344 30.359375 33.707031 30.652344 C 33.550781 30.660156 33.394531 30.652344 33.238281 30.625 C 33.328125 30.363281 33.398438 30.09375 33.445312 29.816406 Z M 33.445312 29.816406 "/>
</g>
<mask id="mask10" fill="#ffffff">
  <g filter="url(#alpha)">
<rect x="0" y="0" width="71" height="40" style="fill:#ffffff;fill-opacity:0.776471;stroke:none;"/>
  </g>
</mask>
<clipPath id="clip11" fill="#ffffff">
  <rect x="0" y="0" width="71" height="40" fill="#ffffff"/>
</clipPath>
<g id="surface35" clip-path="url(#clip11)">
<path style=" stroke:none;fill-rule:evenodd;fill:#ffffff;fill-opacity:1;" d="M 36.929688 29.191406 C 37.132812 29.175781 37.332031 29.195312 37.527344 29.246094 C 37.5625 30.0625 37.5625 30.875 37.527344 31.691406 C 37.332031 31.742188 37.132812 31.761719 36.929688 31.746094 C 36.929688 30.894531 36.929688 30.042969 36.929688 29.191406 Z M 36.929688 29.191406 "/>
</g>
<mask id="mask11" fill="#ffffff">
  <g filter="url(#alpha)">
<rect x="0" y="0" width="71" height="40" style="fill:#ffffff;fill-opacity:0.788235;stroke:none;"/>
  </g>
</mask>
<clipPath id="clip12" fill="#ffffff">
  <rect x="0" y="0" width="71" height="40" fill="#ffffff"/>
</clipPath>
<g id="surface38" clip-path="url(#clip12)">
<path style=" stroke:none;fill-rule:evenodd;fill:#ffffff;fill-opacity:1;" d="M 38.59375 29.191406 C 39.039062 29.140625 39.453125 29.21875 39.839844 29.425781 C 40.035156 29.621094 40.140625 29.855469 40.152344 30.128906 C 39.960938 30.140625 39.769531 30.128906 39.582031 30.105469 C 39.457031 29.765625 39.210938 29.640625 38.851562 29.738281 C 38.769531 29.777344 38.691406 29.820312 38.617188 29.871094 C 38.449219 30.269531 38.449219 30.667969 38.617188 31.066406 C 38.777344 31.136719 38.929688 31.207031 39.085938 31.277344 C 39.226562 31.195312 39.375 31.136719 39.527344 31.09375 C 39.574219 31.023438 39.589844 30.945312 39.582031 30.859375 C 39.421875 30.867188 39.265625 30.859375 39.113281 30.832031 C 39.0625 30.675781 39.046875 30.507812 39.058594 30.339844 C 39.441406 30.339844 39.824219 30.339844 40.203125 30.339844 C 40.203125 30.808594 40.203125 31.277344 40.203125 31.746094 C 40.0625 31.753906 39.925781 31.746094 39.789062 31.71875 C 39.757812 31.671875 39.726562 31.628906 39.683594 31.589844 C 39.628906 31.652344 39.558594 31.695312 39.476562 31.71875 C 38.238281 31.847656 37.699219 31.292969 37.863281 30.050781 C 37.941406 29.886719 38.019531 29.722656 38.097656 29.558594 C 38.261719 29.429688 38.425781 29.308594 38.59375 29.191406 Z M 38.59375 29.191406 "/>
</g>
<mask id="mask12" fill="#ffffff">
  <g filter="url(#alpha)">
<rect x="0" y="0" width="71" height="40" style="fill:#ffffff;fill-opacity:0.803922;stroke:none;"/>
  </g>
</mask>
<clipPath id="clip13" fill="#ffffff">
  <rect x="0" y="0" width="71" height="40" fill="#ffffff"/>
</clipPath>
<g id="surface41" clip-path="url(#clip13)">
<path style=" stroke:none;fill-rule:evenodd;fill:#ffffff;fill-opacity:1;" d="M 41.972656 29.191406 C 42.363281 29.160156 42.746094 29.203125 43.113281 29.324219 C 43.402344 29.488281 43.523438 29.738281 43.476562 30.078125 C 43.289062 30.078125 43.097656 30.078125 42.90625 30.078125 C 42.894531 29.796875 42.746094 29.675781 42.464844 29.714844 C 42.15625 29.671875 42.046875 29.792969 42.128906 30.078125 C 42.402344 30.148438 42.679688 30.210938 42.957031 30.261719 C 43.5625 30.484375 43.710938 30.875 43.402344 31.433594 C 43.265625 31.550781 43.117188 31.644531 42.957031 31.71875 C 42.648438 31.753906 42.335938 31.753906 42.023438 31.71875 C 41.617188 31.574219 41.410156 31.289062 41.398438 30.859375 C 41.605469 30.859375 41.816406 30.859375 42.023438 30.859375 C 42.121094 31.25 42.363281 31.371094 42.75 31.222656 C 42.835938 31.171875 42.90625 31.101562 42.957031 31.015625 C 42.875 30.90625 42.773438 30.816406 42.648438 30.753906 C 42.34375 30.691406 42.050781 30.605469 41.761719 30.496094 C 41.589844 30.339844 41.484375 30.148438 41.453125 29.921875 C 41.472656 29.792969 41.515625 29.667969 41.582031 29.558594 C 41.714844 29.429688 41.84375 29.304688 41.972656 29.191406 Z M 41.972656 29.191406 "/>
</g>
<mask id="mask13" fill="#ffffff">
  <g filter="url(#alpha)">
<rect x="0" y="0" width="71" height="40" style="fill:#ffffff;fill-opacity:0.835294;stroke:none;"/>
  </g>
</mask>
<clipPath id="clip14" fill="#ffffff">
  <rect x="0" y="0" width="71" height="40" fill="#ffffff"/>
</clipPath>
<g id="surface44" clip-path="url(#clip14)">
<path style=" stroke:none;fill-rule:evenodd;fill:#ffffff;fill-opacity:1;" d="M 48.050781 29.191406 C 48.242188 29.191406 48.433594 29.191406 48.625 29.191406 C 48.625 30.042969 48.625 30.894531 48.625 31.746094 C 48.433594 31.746094 48.242188 31.746094 48.050781 31.746094 C 48.058594 31.691406 48.050781 31.636719 48.027344 31.589844 C 48 31.648438 47.957031 31.691406 47.894531 31.71875 C 47.453125 31.855469 47.132812 31.726562 46.933594 31.328125 C 46.765625 30.808594 46.859375 30.347656 47.222656 29.949219 C 47.476562 29.792969 47.738281 29.785156 48 29.921875 C 48.050781 29.679688 48.070312 29.4375 48.050781 29.191406 Z M 47.6875 30.285156 C 48.019531 30.273438 48.140625 30.429688 48.050781 30.753906 C 48.121094 31.042969 48.019531 31.234375 47.742188 31.328125 C 47.34375 31.003906 47.328125 30.65625 47.6875 30.285156 Z M 47.6875 30.285156 "/>
</g>
<mask id="mask14" fill="#ffffff">
  <g filter="url(#alpha)">
<rect x="0" y="0" width="71" height="40" style="fill:#ffffff;fill-opacity:0.811765;stroke:none;"/>
  </g>
</mask>
<clipPath id="clip15" fill="#ffffff">
  <rect x="0" y="0" width="71" height="40" fill="#ffffff"/>
</clipPath>
<g id="surface47" clip-path="url(#clip15)">
<path style=" stroke:none;fill-rule:evenodd;fill:#ffffff;fill-opacity:1;" d="M 55.171875 29.191406 C 55.609375 29.175781 56.039062 29.191406 56.472656 29.246094 C 56.675781 29.320312 56.839844 29.441406 56.964844 29.609375 C 57 29.78125 57 29.957031 56.964844 30.128906 C 56.917969 30.238281 56.839844 30.316406 56.734375 30.363281 C 56.964844 30.492188 57.085938 30.691406 57.097656 30.964844 C 57.078125 31.289062 56.921875 31.523438 56.628906 31.667969 C 56.128906 31.738281 55.625 31.765625 55.121094 31.746094 C 55.105469 30.890625 55.121094 30.039062 55.171875 29.191406 Z M 55.746094 29.714844 C 55.957031 29.699219 56.164062 29.726562 56.367188 29.792969 C 56.4375 29.894531 56.4375 30 56.367188 30.105469 C 56.164062 30.171875 55.957031 30.195312 55.746094 30.183594 C 55.746094 30.027344 55.746094 29.871094 55.746094 29.714844 Z M 55.746094 30.703125 C 55.953125 30.695312 56.160156 30.703125 56.367188 30.730469 C 56.503906 30.867188 56.503906 31.003906 56.367188 31.144531 C 56.160156 31.171875 55.953125 31.179688 55.746094 31.171875 C 55.746094 31.015625 55.746094 30.859375 55.746094 30.703125 Z M 55.746094 30.703125 "/>
</g>
<mask id="mask15" fill="#ffffff">
  <g filter="url(#alpha)">
<rect x="0" y="0" width="71" height="40" style="fill:#ffffff;fill-opacity:0.839216;stroke:none;"/>
  </g>
</mask>
<clipPath id="clip16" fill="#ffffff">
  <rect x="0" y="0" width="71" height="40" fill="#ffffff"/>
</clipPath>
<g id="surface50" clip-path="url(#clip16)">
<path style=" stroke:none;fill-rule:evenodd;fill:#ffffff;fill-opacity:1;" d="M 64.582031 29.191406 C 64.773438 29.191406 64.960938 29.191406 65.152344 29.191406 C 65.144531 29.472656 65.152344 29.75 65.179688 30.027344 C 65.464844 29.792969 65.765625 29.765625 66.089844 29.949219 C 66.167969 30.03125 66.230469 30.125 66.269531 30.234375 C 66.296875 30.738281 66.304688 31.242188 66.296875 31.746094 C 66.105469 31.746094 65.914062 31.746094 65.722656 31.746094 C 65.734375 31.328125 65.722656 30.910156 65.699219 30.496094 C 65.546875 30.226562 65.382812 30.226562 65.203125 30.496094 C 65.152344 30.910156 65.136719 31.328125 65.152344 31.746094 C 64.960938 31.746094 64.773438 31.746094 64.582031 31.746094 C 64.582031 30.894531 64.582031 30.042969 64.582031 29.191406 Z M 64.582031 29.191406 "/>
</g>
<mask id="mask16" fill="#ffffff">
  <g filter="url(#alpha)">
<rect x="0" y="0" width="71" height="40" style="fill:#ffffff;fill-opacity:0.788235;stroke:none;"/>
  </g>
</mask>
<clipPath id="clip17" fill="#ffffff">
  <rect x="0" y="0" width="71" height="40" fill="#ffffff"/>
</clipPath>
<g id="surface53" clip-path="url(#clip17)">
<path style=" stroke:none;fill-rule:evenodd;fill:#ffffff;fill-opacity:1;" d="M 43.84375 29.453125 C 44.050781 29.453125 44.257812 29.453125 44.464844 29.453125 C 44.464844 29.59375 44.464844 29.730469 44.464844 29.871094 C 44.570312 29.871094 44.675781 29.871094 44.777344 29.871094 C 44.777344 30.027344 44.777344 30.183594 44.777344 30.339844 C 44.675781 30.339844 44.570312 30.339844 44.464844 30.339844 C 44.457031 30.652344 44.464844 30.964844 44.492188 31.277344 C 44.582031 31.3125 44.667969 31.328125 44.75 31.328125 C 44.777344 31.464844 44.785156 31.605469 44.777344 31.746094 C 44.550781 31.753906 44.328125 31.746094 44.101562 31.71875 C 44.03125 31.667969 43.964844 31.613281 43.894531 31.5625 C 43.910156 31.546875 43.929688 31.527344 43.945312 31.511719 C 43.84375 31.132812 43.808594 30.742188 43.84375 30.339844 C 43.773438 30.339844 43.703125 30.339844 43.632812 30.339844 C 43.632812 30.183594 43.632812 30.027344 43.632812 29.871094 C 43.703125 29.871094 43.773438 29.871094 43.84375 29.871094 C 43.84375 29.730469 43.84375 29.59375 43.84375 29.453125 Z M 43.84375 29.453125 "/>
</g>
<mask id="mask17" fill="#ffffff">
  <g filter="url(#alpha)">
<rect x="0" y="0" width="71" height="40" style="fill:#ffffff;fill-opacity:0.807843;stroke:none;"/>
  </g>
</mask>
<clipPath id="clip18" fill="#ffffff">
  <rect x="0" y="0" width="71" height="40" fill="#ffffff"/>
</clipPath>
<g id="surface56" clip-path="url(#clip18)">
<path style=" stroke:none;fill-rule:evenodd;fill:#ffffff;fill-opacity:1;" d="M 53.042969 29.453125 C 53.25 29.453125 53.457031 29.453125 53.664062 29.453125 C 53.664062 29.59375 53.664062 29.730469 53.664062 29.871094 C 53.753906 29.871094 53.839844 29.871094 53.925781 29.871094 C 53.925781 30.027344 53.925781 30.183594 53.925781 30.339844 C 53.839844 30.339844 53.753906 30.339844 53.664062 30.339844 C 53.65625 30.671875 53.671875 31 53.71875 31.328125 C 53.785156 31.335938 53.847656 31.320312 53.898438 31.277344 C 53.925781 31.429688 53.933594 31.585938 53.925781 31.746094 C 53.71875 31.753906 53.507812 31.746094 53.300781 31.71875 C 53.222656 31.675781 53.164062 31.613281 53.121094 31.535156 C 53.046875 31.144531 53.019531 30.742188 53.042969 30.339844 C 52.972656 30.339844 52.902344 30.339844 52.835938 30.339844 C 52.835938 30.183594 52.835938 30.027344 52.835938 29.871094 C 52.902344 29.871094 52.972656 29.871094 53.042969 29.871094 C 53.042969 29.730469 53.042969 29.59375 53.042969 29.453125 Z M 53.042969 29.453125 "/>
</g>
<mask id="mask18" fill="#ffffff">
  <g filter="url(#alpha)">
<rect x="0" y="0" width="71" height="40" style="fill:#ffffff;fill-opacity:0.772549;stroke:none;"/>
  </g>
</mask>
<clipPath id="clip19" fill="#ffffff">
  <rect x="0" y="0" width="71" height="40" fill="#ffffff"/>
</clipPath>
<g id="surface59" clip-path="url(#clip19)">
<path style=" stroke:none;fill-rule:evenodd;fill:#ffffff;fill-opacity:1;" d="M 49.664062 29.816406 C 50.417969 29.816406 50.785156 30.191406 50.753906 30.9375 C 50.320312 30.953125 49.890625 30.972656 49.457031 30.988281 C 49.550781 31.332031 49.757812 31.433594 50.078125 31.300781 C 50.113281 31.234375 50.148438 31.164062 50.183594 31.09375 C 50.355469 31.066406 50.527344 31.058594 50.703125 31.066406 C 50.699219 31.394531 50.542969 31.609375 50.234375 31.71875 C 49.164062 31.859375 48.738281 31.398438 48.960938 30.339844 C 49.046875 30.210938 49.144531 30.089844 49.246094 29.972656 C 49.390625 29.921875 49.53125 29.867188 49.664062 29.816406 Z M 49.664062 30.234375 C 49.941406 30.171875 50.097656 30.277344 50.132812 30.546875 C 49.921875 30.546875 49.714844 30.546875 49.507812 30.546875 C 49.535156 30.429688 49.589844 30.328125 49.664062 30.234375 Z M 49.664062 30.234375 "/>
</g>
<mask id="mask19" fill="#ffffff">
  <g filter="url(#alpha)">
<rect x="0" y="0" width="71" height="40" style="fill:#ffffff;fill-opacity:0.803922;stroke:none;"/>
  </g>
</mask>
<clipPath id="clip20" fill="#ffffff">
  <rect x="0" y="0" width="71" height="40" fill="#ffffff"/>
</clipPath>
<g id="surface62" clip-path="url(#clip20)">
<path style=" stroke:none;fill-rule:evenodd;fill:#ffffff;fill-opacity:1;" d="M 51.949219 29.816406 C 52.289062 29.792969 52.523438 29.929688 52.652344 30.234375 C 52.679688 30.738281 52.6875 31.242188 52.679688 31.746094 C 52.488281 31.746094 52.296875 31.746094 52.105469 31.746094 C 52.117188 31.292969 52.105469 30.839844 52.082031 30.390625 C 52.042969 30.335938 51.988281 30.300781 51.925781 30.285156 C 51.765625 30.339844 51.636719 30.4375 51.535156 30.574219 C 51.59375 30.941406 51.601562 31.316406 51.5625 31.691406 C 51.367188 31.742188 51.167969 31.761719 50.964844 31.746094 C 50.964844 31.121094 50.964844 30.496094 50.964844 29.871094 C 51.15625 29.859375 51.34375 29.871094 51.535156 29.894531 C 51.5625 29.921875 51.585938 29.949219 51.613281 29.972656 C 51.730469 29.925781 51.84375 29.875 51.949219 29.816406 Z M 51.949219 29.816406 "/>
</g>
<mask id="mask20" fill="#ffffff">
  <g filter="url(#alpha)">
<rect x="0" y="0" width="71" height="40" style="fill:#ffffff;fill-opacity:0.811765;stroke:none;"/>
  </g>
</mask>
<clipPath id="clip21" fill="#ffffff">
  <rect x="0" y="0" width="71" height="40" fill="#ffffff"/>
</clipPath>
<g id="surface65" clip-path="url(#clip21)">
<path style=" stroke:none;fill-rule:evenodd;fill:#ffffff;fill-opacity:1;" d="M 58.292969 29.816406 C 58.519531 29.792969 58.605469 29.898438 58.550781 30.128906 C 58.535156 30.21875 58.515625 30.304688 58.5 30.390625 C 58.277344 30.300781 58.097656 30.351562 57.953125 30.546875 C 57.929688 30.945312 57.917969 31.34375 57.929688 31.746094 C 57.738281 31.746094 57.546875 31.746094 57.355469 31.746094 C 57.355469 31.121094 57.355469 30.496094 57.355469 29.871094 C 57.546875 29.871094 57.738281 29.871094 57.929688 29.871094 C 57.914062 30.082031 57.949219 30.105469 58.03125 29.949219 C 58.125 29.910156 58.210938 29.863281 58.292969 29.816406 Z M 58.292969 29.816406 "/>
</g>
<mask id="mask21" fill="#ffffff">
  <g filter="url(#alpha)">
<rect x="0" y="0" width="71" height="40" style="fill:#ffffff;fill-opacity:0.764706;stroke:none;"/>
  </g>
</mask>
<clipPath id="clip22" fill="#ffffff">
  <rect x="0" y="0" width="71" height="40" fill="#ffffff"/>
</clipPath>
<g id="surface68" clip-path="url(#clip22)">
<path style=" stroke:none;fill-rule:evenodd;fill:#ffffff;fill-opacity:1;" d="M 59.382812 29.816406 C 59.652344 29.820312 59.914062 29.871094 60.164062 29.972656 C 60.265625 30.082031 60.34375 30.203125 60.398438 30.339844 C 60.429688 30.789062 60.429688 31.242188 60.398438 31.691406 C 60.203125 31.742188 60.003906 31.761719 59.800781 31.746094 C 59.808594 31.691406 59.796875 31.636719 59.773438 31.589844 C 59.746094 31.648438 59.703125 31.691406 59.644531 31.71875 C 59.398438 31.753906 59.15625 31.753906 58.914062 31.71875 C 58.625 31.546875 58.527344 31.296875 58.628906 30.964844 C 58.671875 30.871094 58.730469 30.792969 58.8125 30.730469 C 59.128906 30.609375 59.460938 30.53125 59.800781 30.496094 C 59.738281 30.246094 59.582031 30.167969 59.332031 30.261719 C 59.296875 30.328125 59.261719 30.398438 59.226562 30.46875 C 59.039062 30.496094 58.847656 30.503906 58.65625 30.496094 C 58.648438 30.40625 58.65625 30.320312 58.679688 30.234375 C 58.851562 29.980469 59.085938 29.839844 59.382812 29.816406 Z M 59.332031 30.964844 C 59.488281 30.964844 59.644531 30.964844 59.800781 30.964844 C 59.785156 31.308594 59.613281 31.429688 59.277344 31.328125 C 59.144531 31.167969 59.160156 31.046875 59.332031 30.964844 Z M 59.332031 30.964844 "/>
</g>
<mask id="mask22" fill="#ffffff">
  <g filter="url(#alpha)">
<rect x="0" y="0" width="71" height="40" style="fill:#ffffff;fill-opacity:0.776471;stroke:none;"/>
  </g>
</mask>
<clipPath id="clip23" fill="#ffffff">
  <rect x="0" y="0" width="71" height="40" fill="#ffffff"/>
</clipPath>
<g id="surface71" clip-path="url(#clip23)">
<path style=" stroke:none;fill-rule:evenodd;fill:#ffffff;fill-opacity:1;" d="M 61.671875 29.816406 C 62.035156 29.792969 62.277344 29.949219 62.398438 30.285156 C 62.449219 30.769531 62.46875 31.257812 62.449219 31.746094 C 62.242188 31.746094 62.035156 31.746094 61.824219 31.746094 C 61.835938 31.328125 61.824219 30.910156 61.800781 30.496094 C 61.742188 30.265625 61.613281 30.222656 61.410156 30.363281 C 61.378906 30.402344 61.351562 30.445312 61.332031 30.496094 C 61.304688 30.910156 61.296875 31.328125 61.304688 31.746094 C 61.097656 31.746094 60.890625 31.746094 60.683594 31.746094 C 60.683594 31.121094 60.683594 30.496094 60.683594 29.871094 C 60.917969 29.839844 61.132812 29.875 61.332031 29.972656 C 61.453125 29.925781 61.5625 29.875 61.671875 29.816406 Z M 61.671875 29.816406 "/>
</g>
<mask id="mask23" fill="#ffffff">
  <g filter="url(#alpha)">
<rect x="0" y="0" width="71" height="40" style="fill:#ffffff;fill-opacity:0.772549;stroke:none;"/>
  </g>
</mask>
<clipPath id="clip24" fill="#ffffff">
  <rect x="0" y="0" width="71" height="40" fill="#ffffff"/>
</clipPath>
<g id="surface74" clip-path="url(#clip24)">
<path style=" stroke:none;fill-rule:evenodd;fill:#ffffff;fill-opacity:1;" d="M 63.4375 29.816406 C 63.875 29.78125 64.195312 29.953125 64.398438 30.339844 C 64.4375 30.421875 64.425781 30.5 64.371094 30.574219 C 64.199219 30.617188 64.023438 30.605469 63.851562 30.546875 C 63.773438 30.289062 63.617188 30.226562 63.386719 30.363281 C 63.285156 30.589844 63.261719 30.824219 63.308594 31.066406 C 63.484375 31.410156 63.664062 31.410156 63.851562 31.066406 C 64.039062 31 64.21875 31 64.398438 31.066406 C 64.378906 31.363281 64.234375 31.582031 63.957031 31.71875 C 63.363281 31.90625 62.941406 31.722656 62.683594 31.171875 C 62.5625 30.699219 62.675781 30.300781 63.023438 29.972656 C 63.167969 29.921875 63.304688 29.867188 63.4375 29.816406 Z M 63.4375 29.816406 "/>
</g>
<mask id="mask24" fill="#ffffff">
  <g filter="url(#alpha)">
<rect x="0" y="0" width="71" height="40" style="fill:#ffffff;fill-opacity:0.803922;stroke:none;"/>
  </g>
</mask>
<clipPath id="clip25" fill="#ffffff">
  <rect x="0" y="0" width="71" height="40" fill="#ffffff"/>
</clipPath>
<g id="surface77" clip-path="url(#clip25)">
<path style=" stroke:none;fill-rule:evenodd;fill:#ffffff;fill-opacity:1;" d="M 44.882812 29.871094 C 45.089844 29.871094 45.296875 29.871094 45.503906 29.871094 C 45.496094 30.320312 45.503906 30.773438 45.53125 31.222656 C 45.570312 31.28125 45.621094 31.316406 45.6875 31.328125 C 45.804688 31.28125 45.910156 31.210938 46 31.121094 C 46.023438 30.703125 46.035156 30.285156 46.023438 29.871094 C 46.214844 29.871094 46.40625 29.871094 46.597656 29.871094 C 46.597656 30.496094 46.597656 31.121094 46.597656 31.746094 C 46.40625 31.746094 46.214844 31.746094 46.023438 31.746094 C 46.03125 31.691406 46.023438 31.636719 46 31.589844 C 45.863281 31.714844 45.695312 31.769531 45.503906 31.746094 C 45.144531 31.765625 44.945312 31.59375 44.90625 31.222656 C 44.882812 30.773438 44.875 30.320312 44.882812 29.871094 Z M 44.882812 29.871094 "/>
</g>
<mask id="mask25" fill="#ffffff">
  <g filter="url(#alpha)">
<rect x="0" y="0" width="71" height="40" style="fill:#ffffff;fill-opacity:0.0156863;stroke:none;"/>
  </g>
</mask>
<clipPath id="clip26" fill="#ffffff">
  <rect x="0" y="0" width="71" height="40" fill="#ffffff"/>
</clipPath>
<g id="surface80" clip-path="url(#clip26)">
<path style=" stroke:none;fill-rule:evenodd;fill:#ffffff;fill-opacity:1;" d="M 38.332031 38.253906 C 38.402344 38.289062 38.402344 38.289062 38.332031 38.253906 Z M 38.332031 38.253906 "/>
</g>
<mask id="mask26" fill="#ffffff">
  <g filter="url(#alpha)">
<rect x="0" y="0" width="71" height="40" style="fill:#ffffff;fill-opacity:0.0235294;stroke:none;"/>
  </g>
</mask>
<clipPath id="clip27" fill="#ffffff">
  <rect x="0" y="0" width="71" height="40" fill="#ffffff"/>
</clipPath>
<g id="surface83" clip-path="url(#clip27)">
<path style=" stroke:none;fill-rule:evenodd;fill:#ffffff;fill-opacity:1;" d="M 39.425781 38.253906 C 39.476562 38.277344 39.484375 38.3125 39.449219 38.359375 C 39.425781 38.328125 39.417969 38.292969 39.425781 38.253906 Z M 39.425781 38.253906 "/>
</g>
<mask id="mask27" fill="#ffffff">
  <g filter="url(#alpha)">
<rect x="0" y="0" width="71" height="40" style="fill:#ffffff;fill-opacity:0.00784314;stroke:none;"/>
  </g>
</mask>
<clipPath id="clip28" fill="#ffffff">
  <rect x="0" y="0" width="71" height="40" fill="#ffffff"/>
</clipPath>
<g id="surface86" clip-path="url(#clip28)">
<path style=" stroke:none;fill-rule:evenodd;fill:#ffffff;fill-opacity:1;" d="M 36.511719 38.308594 C 36.582031 38.34375 36.582031 38.34375 36.511719 38.308594 Z M 36.511719 38.308594 "/>
</g>
<mask id="mask28" fill="#ffffff">
  <g filter="url(#alpha)">
<rect x="0" y="0" width="71" height="40" style="fill:#ffffff;fill-opacity:0.0196078;stroke:none;"/>
  </g>
</mask>
<clipPath id="clip29" fill="#ffffff">
  <rect x="0" y="0" width="71" height="40" fill="#ffffff"/>
</clipPath>
<g id="surface89" clip-path="url(#clip29)">
<path style=" stroke:none;fill-rule:evenodd;fill:#ffffff;fill-opacity:1;" d="M 36.617188 38.359375 C 36.636719 38.304688 36.671875 38.296875 36.722656 38.332031 C 36.691406 38.359375 36.65625 38.367188 36.617188 38.359375 Z M 36.617188 38.359375 "/>
</g>
<mask id="mask29" fill="#ffffff">
  <g filter="url(#alpha)">
<rect x="0" y="0" width="71" height="40" style="fill:#ffffff;fill-opacity:0.0235294;stroke:none;"/>
  </g>
</mask>
<clipPath id="clip30" fill="#ffffff">
  <rect x="0" y="0" width="71" height="40" fill="#ffffff"/>
</clipPath>
<g id="surface92" clip-path="url(#clip30)">
<path style=" stroke:none;fill-rule:evenodd;fill:#ffffff;fill-opacity:1;" d="M 38.074219 38.308594 C 38.140625 38.34375 38.140625 38.34375 38.074219 38.308594 Z M 38.074219 38.308594 "/>
</g>
<mask id="mask30" fill="#ffffff">
  <g filter="url(#alpha)">
<rect x="0" y="0" width="71" height="40" style="fill:#ffffff;fill-opacity:0.0156863;stroke:none;"/>
  </g>
</mask>
<clipPath id="clip31" fill="#ffffff">
  <rect x="0" y="0" width="71" height="40" fill="#ffffff"/>
</clipPath>
<g id="surface95" clip-path="url(#clip31)">
<path style=" stroke:none;fill-rule:evenodd;fill:#ffffff;fill-opacity:1;" d="M 38.75 38.308594 C 38.804688 38.363281 38.8125 38.433594 38.773438 38.515625 C 38.75 38.449219 38.742188 38.378906 38.75 38.308594 Z M 38.75 38.308594 "/>
</g>
<mask id="mask31" fill="#ffffff">
  <g filter="url(#alpha)">
<rect x="0" y="0" width="71" height="40" style="fill:#ffffff;fill-opacity:0.0156863;stroke:none;"/>
  </g>
</mask>
<clipPath id="clip32" fill="#ffffff">
  <rect x="0" y="0" width="71" height="40" fill="#ffffff"/>
</clipPath>
<g id="surface98" clip-path="url(#clip32)">
<path style=" stroke:none;fill-rule:evenodd;fill:#ffffff;fill-opacity:1;" d="M 37.917969 38.359375 C 37.984375 38.394531 37.984375 38.394531 37.917969 38.359375 Z M 37.917969 38.359375 "/>
</g>
<mask id="mask32" fill="#ffffff">
  <g filter="url(#alpha)">
<rect x="0" y="0" width="71" height="40" style="fill:#ffffff;fill-opacity:0.0156863;stroke:none;"/>
  </g>
</mask>
<clipPath id="clip33" fill="#ffffff">
  <rect x="0" y="0" width="71" height="40" fill="#ffffff"/>
</clipPath>
<g id="surface101" clip-path="url(#clip33)">
<path style=" stroke:none;fill-rule:evenodd;fill:#ffffff;fill-opacity:1;" d="M 39.164062 38.359375 C 39.234375 38.394531 39.234375 38.394531 39.164062 38.359375 Z M 39.164062 38.359375 "/>
</g>
<mask id="mask33" fill="#ffffff">
  <g filter="url(#alpha)">
<rect x="0" y="0" width="71" height="40" style="fill:#ffffff;fill-opacity:0.0313725;stroke:none;"/>
  </g>
</mask>
<clipPath id="clip34" fill="#ffffff">
  <rect x="0" y="0" width="71" height="40" fill="#ffffff"/>
</clipPath>
<g id="surface104" clip-path="url(#clip34)">
<path style=" stroke:none;fill-rule:evenodd;fill:#ffffff;fill-opacity:1;" d="M 37.398438 38.410156 C 37.449219 38.433594 37.460938 38.46875 37.421875 38.515625 C 37.398438 38.484375 37.390625 38.449219 37.398438 38.410156 Z M 37.398438 38.410156 "/>
</g>
<mask id="mask34" fill="#ffffff">
  <g filter="url(#alpha)">
<rect x="0" y="0" width="71" height="40" style="fill:#ffffff;fill-opacity:0.0156863;stroke:none;"/>
  </g>
</mask>
<clipPath id="clip35" fill="#ffffff">
  <rect x="0" y="0" width="71" height="40" fill="#ffffff"/>
</clipPath>
<g id="surface107" clip-path="url(#clip35)">
<path style=" stroke:none;fill-rule:evenodd;fill:#ffffff;fill-opacity:1;" d="M 38.59375 38.410156 C 38.660156 38.445312 38.660156 38.445312 38.59375 38.410156 Z M 38.59375 38.410156 "/>
</g>
<mask id="mask35" fill="#ffffff">
  <g filter="url(#alpha)">
<rect x="0" y="0" width="71" height="40" style="fill:#ffffff;fill-opacity:0.0156863;stroke:none;"/>
  </g>
</mask>
<clipPath id="clip36" fill="#ffffff">
  <rect x="0" y="0" width="71" height="40" fill="#ffffff"/>
</clipPath>
<g id="surface110" clip-path="url(#clip36)">
<path style=" stroke:none;fill-rule:evenodd;fill:#ffffff;fill-opacity:1;" d="M 38.332031 38.464844 C 38.402344 38.5 38.402344 38.5 38.332031 38.464844 Z M 38.332031 38.464844 "/>
</g>
</defs>
<g id="surface1">
<use xlink:href="#surface5" mask="url(#mask0)" fill="#ffffff"/>
<use xlink:href="#surface8" mask="url(#mask1)" fill="#ffffff"/>
<use xlink:href="#surface11" mask="url(#mask2)" fill="#ffffff"/>
<use xlink:href="#surface14" mask="url(#mask3)" fill="#ffffff"/>
<use xlink:href="#surface17" mask="url(#mask4)" fill="#ffffff"/>
<use xlink:href="#surface20" mask="url(#mask5)" fill="#ffffff"/>
<use xlink:href="#surface23" mask="url(#mask6)" fill="#ffffff"/>
<use xlink:href="#surface26" mask="url(#mask7)" fill="#ffffff"/>
<use xlink:href="#surface29" mask="url(#mask8)" fill="#ffffff"/>
<use xlink:href="#surface32" mask="url(#mask9)" fill="#ffffff"/>
<use xlink:href="#surface35" mask="url(#mask10)" fill="#ffffff"/>
<use xlink:href="#surface38" mask="url(#mask11)" fill="#ffffff"/>
<use xlink:href="#surface41" mask="url(#mask12)" fill="#ffffff"/>
<use xlink:href="#surface44" mask="url(#mask13)" fill="#ffffff"/>
<use xlink:href="#surface47" mask="url(#mask14)" fill="#ffffff"/>
<use xlink:href="#surface50" mask="url(#mask15)" fill="#ffffff"/>
<use xlink:href="#surface53" mask="url(#mask16)" fill="#ffffff"/>
<use xlink:href="#surface56" mask="url(#mask17)" fill="#ffffff"/>
<use xlink:href="#surface59" mask="url(#mask18)" fill="#ffffff"/>
<use xlink:href="#surface62" mask="url(#mask19)" fill="#ffffff"/>
<use xlink:href="#surface65" mask="url(#mask20)" fill="#ffffff"/>
<use xlink:href="#surface68" mask="url(#mask21)" fill="#ffffff"/>
<use xlink:href="#surface71" mask="url(#mask22)" fill="#ffffff"/>
<use xlink:href="#surface74" mask="url(#mask23)" fill="#ffffff"/>
<use xlink:href="#surface77" mask="url(#mask24)" fill="#ffffff"/>
<use xlink:href="#surface80" mask="url(#mask25)" fill="#ffffff"/>
<use xlink:href="#surface83" mask="url(#mask26)" fill="#ffffff"/>
<use xlink:href="#surface86" mask="url(#mask27)" fill="#ffffff"/>
<use xlink:href="#surface89" mask="url(#mask28)" fill="#ffffff"/>
<use xlink:href="#surface92" mask="url(#mask29)" fill="#ffffff"/>
<use xlink:href="#surface95" mask="url(#mask30)" fill="#ffffff"/>
<use xlink:href="#surface98" mask="url(#mask31)" fill="#ffffff"/>
<use xlink:href="#surface101" mask="url(#mask32)" fill="#ffffff"/>
<use xlink:href="#surface104" mask="url(#mask33)" fill="#ffffff"/>
<use xlink:href="#surface107" mask="url(#mask34)" fill="#ffffff"/>
<use xlink:href="#surface110" mask="url(#mask35)" fill="#ffffff"/>
</g>
</svg>